<?xml version="1.0" encoding="UTF-8" standalone="no"?>
<!DOCTYPE svg PUBLIC "-//W3C//DTD SVG 1.1//EN" "http://www.w3.org/Graphics/SVG/1.1/DTD/svg11.dtd">
<svg width="100%" height="100%" viewBox="0 0 39 54" version="1.1" xmlns="http://www.w3.org/2000/svg" xmlns:xlink="http://www.w3.org/1999/xlink" xml:space="preserve" xmlns:serif="http://www.serif.com/" style="fill-rule:evenodd;clip-rule:evenodd;stroke-linejoin:round;stroke-miterlimit:2;">
    <g transform="matrix(1,0,0,1,-2535.35,-2750.29)">
        <g transform="matrix(1,0,0,1,2059.02,1223.56)">
            <g transform="matrix(0.999544,0.0301869,-0.0301869,0.999544,-262.757,-304.063)">
                <g transform="matrix(0.244881,0,0,0.234382,430.52,1166.89)">
                    <path d="M1489.88,2921.32C1489.88,2921.29 1495.32,2747.67 1495.32,2747.67C1495.32,2742.53 1497.55,2737.68 1501.36,2734.56C1505.16,2731.44 1632.09,2730.22 1635.87,2733.32C1639.65,2736.42 1641.87,2741.23 1641.87,2746.34C1641.97,2793.64 1647.01,2923.53 1647.01,2923.53L1647,2923.53C1646.9,2931.2 1646.16,2955.77 1640.64,2956.45C1634.09,2957.26 1622.7,2941.55 1609.61,2941.55C1596.51,2941.55 1581.54,2956.45 1568.44,2956.45C1555.35,2956.45 1543.51,2944.24 1530.41,2944.24C1517.32,2944.24 1503.08,2957.26 1496.53,2956.45C1491.01,2955.77 1490.07,2931.2 1489.91,2923.53L1489.88,2923.53L1489.88,2921.32Z"/>
                </g>
                <g transform="matrix(0.280646,0,0,0.261122,377.636,1087.71)">
                    <ellipse cx="1526.41" cy="2845.33" rx="17.05" ry="31.037" style="fill:white;"/>
                </g>
                <g transform="matrix(0.280646,0,0,0.261122,394.802,1087.71)">
                    <ellipse cx="1526.41" cy="2845.33" rx="17.05" ry="31.037" style="fill:white;"/>
                </g>
            </g>
        </g>
    </g>
</svg>
