<?xml version="1.0" encoding="UTF-8" standalone="no"?>
<!DOCTYPE svg PUBLIC "-//W3C//DTD SVG 1.1//EN" "http://www.w3.org/Graphics/SVG/1.1/DTD/svg11.dtd">
<svg width="100%" height="100%" viewBox="0 0 64 93" version="1.1" xmlns="http://www.w3.org/2000/svg" xmlns:xlink="http://www.w3.org/1999/xlink" xml:space="preserve" xmlns:serif="http://www.serif.com/" style="fill-rule:evenodd;clip-rule:evenodd;stroke-linejoin:round;stroke-miterlimit:2;">
    <g transform="matrix(1,0,0,1,-2533.68,-3016.73)">
        <g transform="matrix(1,0,0,1,2059.02,1223.56)">
            <g transform="matrix(1.44373,-0.344882,0.344882,1.44373,-1527.96,-579.439)">
                <g transform="matrix(1,0,0,1,-2058.28,-1224.46)">
                    <ellipse cx="3007.83" cy="3150.73" rx="21.152" ry="5.884"/>
                </g>
                <g transform="matrix(1,0,0,1,-2058.88,-1226.51)">
                    <path d="M3018.88,3142.56C3020.41,3143.72 3021.3,3145.16 3021.3,3146.7C3021.3,3150.62 3015.54,3153.8 3008.44,3153.8C3001.33,3153.8 2995.57,3150.62 2995.57,3146.7C2995.57,3144.98 2996.69,3143.39 2998.54,3142.16C3008.43,3134.16 3007.71,3131.28 3002.05,3122.08L3015.03,3122.08C3009.64,3132.54 3009.76,3133.61 3018.88,3142.56Z"/>
                </g>
                <g transform="matrix(1,0,0,0.729069,-2063.4,-369.086)">
                    <ellipse cx="3012.95" cy="3103.58" rx="11.931" ry="5.452"/>
                </g>
                <g transform="matrix(1.03704,0,0,1.14557,-2170.77,-1678.56)">
                    <path d="M2999.99,3106.78C2999.88,3105.93 3000.31,3104.42 3000.31,3104.42L2999.33,3102.69C2999.01,3102.13 2998.97,3101.49 2999.22,3100.9C2999.47,3100.32 2999.97,3099.86 3000.62,3099.64L3000.62,3099.64C3001.27,3099.42 3001.99,3099.46 3002.6,3099.75C3003.22,3100.03 3003.67,3100.55 3003.84,3101.16L3004.36,3103.02L3006.5,3103.01L3006.36,3101.5C3006.28,3100.88 3006.5,3100.26 3006.96,3099.8C3007.42,3099.33 3008.07,3099.07 3008.76,3099.07L3008.76,3099.07C3009.45,3099.07 3010.12,3099.34 3010.58,3099.81C3011.04,3100.27 3011.25,3100.9 3011.17,3101.52L3010.92,3103.43L3013.49,3103.41C3013.62,3103.41 3013.7,3103.17 3013.7,3103.17L3014.16,3101.27C3014.31,3100.66 3014.73,3100.14 3015.33,3099.83C3015.93,3099.52 3016.64,3099.46 3017.3,3099.66L3017.3,3099.66C3017.96,3099.86 3018.49,3100.3 3018.76,3100.88C3019.03,3101.46 3019.01,3102.11 3018.72,3102.68L3017.81,3104.42C3017.81,3104.42 3017.65,3105.95 3017.54,3106.8L3016.07,3117.57L3001.37,3117.57L2999.99,3106.78Z"/>
                </g>
                <g transform="matrix(1,0,0,1.11326,-2059.82,-1576.45)">
                    <ellipse cx="3005.71" cy="3109.8" rx="2.753" ry="2.532" style="fill:white;"/>
                </g>
                <g transform="matrix(1,0,0,1.11326,-2052.86,-1576.45)">
                    <ellipse cx="3005.71" cy="3109.8" rx="2.753" ry="2.532" style="fill:white;"/>
                </g>
                <g transform="matrix(0.657671,-0.315791,0.432853,0.901465,-2374.61,29.3048)">
                    <ellipse cx="3002.16" cy="3107.7" rx="1.467" ry="1.41" style="fill:white;"/>
                </g>
                <g transform="matrix(0.654348,0.281479,-0.358576,0.833575,104.461,-1552.55)">
                    <ellipse cx="3002.16" cy="3107.7" rx="1.467" ry="1.41" style="fill:white;"/>
                </g>
                <g transform="matrix(1,0,0,0.794645,-2058.63,-585.088)">
                    <ellipse cx="3002.16" cy="3107.7" rx="1.467" ry="1.41" style="fill:white;"/>
                </g>
                <g transform="matrix(1,0,0,0.794645,-2047.23,-584.493)">
                    <ellipse cx="3002.16" cy="3107.7" rx="1.467" ry="1.41" style="fill:white;"/>
                </g>
                <g transform="matrix(1.18767,0,0,1,-2622.89,-1217.32)">
                    <ellipse cx="3010.49" cy="3106.16" rx="1.991" ry="1.831"/>
                </g>
                <g transform="matrix(1.18767,0,0,1,-2629.18,-1217.32)">
                    <ellipse cx="3010.49" cy="3106.16" rx="1.991" ry="1.831"/>
                </g>
            </g>
        </g>
    </g>
</svg>
