<?xml version="1.0" encoding="UTF-8" standalone="no"?>
<!DOCTYPE svg PUBLIC "-//W3C//DTD SVG 1.1//EN" "http://www.w3.org/Graphics/SVG/1.1/DTD/svg11.dtd">
<svg width="100%" height="100%" viewBox="0 0 46 68" version="1.1" xmlns="http://www.w3.org/2000/svg" xmlns:xlink="http://www.w3.org/1999/xlink" xml:space="preserve" xmlns:serif="http://www.serif.com/" style="fill-rule:evenodd;clip-rule:evenodd;stroke-linejoin:round;stroke-miterlimit:2;">
    <g transform="matrix(1,0,0,1,-2530.57,-2920.52)">
        <g transform="matrix(1,0,0,1,2059.02,1223.56)">
            <g transform="matrix(1.10117,0.331768,-0.319675,1.06104,-32.6728,-554.496)">
                <g transform="matrix(0.795833,0,0,0.616037,-1430.04,-22.4645)">
                    <ellipse cx="3074.51" cy="3056.3" rx="23.566" ry="6.974"/>
                </g>
                <g transform="matrix(2.65714e-17,0.433943,-1.35086,8.27162e-17,5145.38,486.188)">
                    <path d="M3139.41,3050.37C3139.43,3050.36 3146.56,3046.76 3151.37,3046.76C3159.8,3046.76 3166.64,3051.03 3166.64,3056.3C3166.64,3061.57 3159.8,3065.84 3151.37,3065.84C3146.56,3065.84 3139.46,3062.51 3139.46,3062.51C3134.75,3057.18 3116.16,3057.49 3086.51,3062.3C3086.09,3062.37 3085.66,3062.44 3085.23,3062.51C3082.02,3063 3078.37,3063.27 3074.51,3063.27C3070.99,3063.27 3065.64,3063.24 3062.65,3062.83C3049.41,3061.6 3036.88,3056.3 3036.88,3056.3C3047.81,3051.97 3055.5,3048.98 3071.26,3049.22C3081.28,3049.38 3085.83,3050.16 3090.05,3051.06C3113.7,3054.52 3132.7,3055.59 3139.41,3050.37Z"/>
                </g>
                <g transform="matrix(1.23527,0,0,1.09524,-2782.37,-1514.65)">
                    <ellipse cx="3072.82" cy="3043.21" rx="1.781" ry="4.399" style="fill:white;"/>
                </g>
                <g transform="matrix(1.23527,0,0,1.09524,-2775.88,-1514.65)">
                    <ellipse cx="3072.82" cy="3043.21" rx="1.781" ry="4.399" style="fill:white;"/>
                </g>
                <g transform="matrix(1,0,0,0.607143,-2056.06,-20.7362)">
                    <ellipse cx="3072.82" cy="3043.21" rx="1.781" ry="4.399" style="fill:white;"/>
                </g>
            </g>
        </g>
    </g>
</svg>
