<?xml version="1.0" encoding="UTF-8" standalone="no"?>
<!DOCTYPE svg PUBLIC "-//W3C//DTD SVG 1.1//EN" "http://www.w3.org/Graphics/SVG/1.1/DTD/svg11.dtd">
<svg width="100%" height="100%" viewBox="0 0 60 61" version="1.1" xmlns="http://www.w3.org/2000/svg" xmlns:xlink="http://www.w3.org/1999/xlink" xml:space="preserve" xmlns:serif="http://www.serif.com/" style="fill-rule:evenodd;clip-rule:evenodd;stroke-linejoin:round;stroke-miterlimit:2;">
    <g transform="matrix(1,0,0,1,-2523.54,-2834.25)">
        <g transform="matrix(1,0,0,1,2059.02,1223.56)">
            <g transform="matrix(0.971702,-0.23621,0.23621,0.971702,-792.931,69.9069)">
                <g transform="matrix(1,0,0,1,-2027.71,-1244.12)">
                    <path d="M2929.22,3068.64C2927.14,3069.09 2918.38,3069.58 2918.78,3073.45C2919.18,3077.31 2911.34,3068.77 2909.26,3066.69C2906.58,3064.01 2912.38,3056.09 2917.22,3052.53C2920,3050.49 2922.49,3049.92 2923.06,3049.72C2924.02,3049.37 2926.45,3048.77 2927.52,3048.77C2932.69,3048.77 2936.88,3053.11 2936.88,3058.44C2936.88,3063.53 2934.05,3068.26 2929.22,3068.64Z"/>
                </g>
                <g transform="matrix(1,0,0,1,-2066.85,-1235.87)">
                    <path d="M2934.62,3066.23C2934.62,3066.23 2931.21,3068.97 2927.56,3068.85C2922.4,3068.66 2918.16,3063.77 2918.16,3058.44C2918.16,3055.42 2919.51,3052.72 2921.61,3050.95C2921.61,3050.95 2930.95,3041.3 2940.15,3046.27C2948.68,3050.87 2948.56,3057.88 2948.56,3057.88L2945.36,3069.23C2945.36,3069.23 2942.39,3059.22 2934.62,3066.23Z"/>
                </g>
                <g transform="matrix(1.07372,0,0,1.17638,-2274.56,-1765.91)">
                    <path d="M2948.09,3070.94C2955.85,3071.83 2961.3,3073.89 2961.3,3076.28C2961.3,3079.48 2951.56,3082.08 2939.57,3082.08C2927.58,3082.08 2917.85,3079.48 2917.85,3076.28C2917.85,3074 2922.76,3072.03 2929.91,3071.08C2933.05,3068.71 2933.22,3064.91 2931.08,3062.87L2947.38,3063.24C2944.5,3065.62 2943.79,3069.72 2948.09,3070.94Z"/>
                </g>
                <g transform="matrix(1.09441,0,0,1.10907,-2322.46,-1560.14)">
                    <ellipse cx="2927.52" cy="3058.44" rx="9.359" ry="9.666"/>
                </g>
                <g transform="matrix(1,0,0,1,-2055.5,-1224.97)">
                    <ellipse cx="2918.22" cy="3049.69" rx="2.313" ry="4.956" style="fill:white;"/>
                </g>
                <g transform="matrix(1,0,0,1,-2040.52,-1217.47)">
                    <ellipse cx="2918.22" cy="3049.69" rx="2.313" ry="4.956" style="fill:white;"/>
                </g>
                <g transform="matrix(1,0,0,1,-2033.28,-1217.47)">
                    <ellipse cx="2918.22" cy="3049.69" rx="2.313" ry="4.956" style="fill:white;"/>
                </g>
                <g transform="matrix(0.981818,0.189825,-0.189825,0.981818,-1385.12,-1733.27)">
                    <ellipse cx="2918.22" cy="3049.69" rx="2.313" ry="4.956" style="fill:white;"/>
                </g>
                <g transform="matrix(0.646525,0.125,-0.176493,0.91286,-440.584,-1332.45)">
                    <ellipse cx="2918.22" cy="3049.69" rx="2.313" ry="4.956" style="fill:white;"/>
                </g>
                <g transform="matrix(0.804348,0,0,1,-1491.93,-1225.97)">
                    <ellipse cx="2918.22" cy="3049.69" rx="2.313" ry="4.956" style="fill:white;"/>
                </g>
            </g>
        </g>
    </g>
</svg>
