<?xml version="1.0" encoding="UTF-8" standalone="no"?>
<!DOCTYPE svg PUBLIC "-//W3C//DTD SVG 1.1//EN" "http://www.w3.org/Graphics/SVG/1.1/DTD/svg11.dtd">
<svg width="100%" height="100%" viewBox="0 0 47 58" version="1.1" xmlns="http://www.w3.org/2000/svg" xmlns:xlink="http://www.w3.org/1999/xlink" xml:space="preserve" xmlns:serif="http://www.serif.com/" style="fill-rule:evenodd;clip-rule:evenodd;stroke-linejoin:round;stroke-miterlimit:2;">
    <g transform="matrix(1,0,0,1,-2534.31,-2663.1)">
        <g transform="matrix(1,0,0,1,2059.02,1223.56)">
            <g transform="matrix(0.941756,-0.301783,0.301783,0.941756,-680.39,216.211)">
                <g transform="matrix(0.2131,0,0,0.2131,409.879,953.911)">
                    <path d="M1495.66,2838.67C1495.66,2788.85 1536.11,2748.39 1585.94,2748.39C1635.77,2748.39 1676.23,2788.85 1676.23,2838.67L1676.23,2961.6C1676.23,2961.7 1676.23,2961.92 1676.23,2962.23L1676.23,2967.14L1676.15,2967.14C1675.89,2978.06 1674.65,3001.33 1668.9,3002.04C1661.38,3002.96 1646.13,2967.14 1631.08,2967.14C1616.04,2967.14 1600.99,3002.04 1585.94,3002.04C1570.89,3002.04 1555.85,2967.14 1540.8,2967.14C1525.75,2967.14 1510.83,3002.96 1503.3,3002.04C1497.55,3001.33 1496.12,2978.06 1495.77,2967.14L1495.66,2967.14L1495.66,2961.66C1495.66,2961.63 1495.66,2961.61 1495.66,2961.6L1495.66,2838.67Z"/>
                </g>
                <g transform="matrix(0.261122,0,0,0.261122,341.116,819.346)">
                    <ellipse cx="1526.41" cy="2845.33" rx="17.05" ry="31.037" style="fill:white;"/>
                </g>
                <g transform="matrix(0.261122,0,0,0.261122,357.087,819.346)">
                    <ellipse cx="1526.41" cy="2845.33" rx="17.05" ry="31.037" style="fill:white;"/>
                </g>
            </g>
        </g>
    </g>
</svg>
