<?xml version="1.0" encoding="UTF-8" standalone="no"?>
<!DOCTYPE svg PUBLIC "-//W3C//DTD SVG 1.1//EN" "http://www.w3.org/Graphics/SVG/1.1/DTD/svg11.dtd">
<svg width="100%" height="100%" viewBox="0 0 190 585" version="1.1" xmlns="http://www.w3.org/2000/svg" xmlns:xlink="http://www.w3.org/1999/xlink" xml:space="preserve" xmlns:serif="http://www.serif.com/" style="fill-rule:evenodd;clip-rule:evenodd;stroke-linejoin:round;stroke-miterlimit:2;">
    <g transform="matrix(1,0,0,1,-2483.91,-2593.74)">
        <g transform="matrix(1,0,0,1,2059.02,1223.56)">
            <g transform="matrix(0.457957,0,0,1.38458,-1172.03,-2846.21)">
                <path d="M3901.66,3045.24C3882.89,3123.48 3876.99,3211.94 3897.72,3321.57C3882.59,3373.94 3882.57,3422.84 3901.66,3467.36C3772.24,3454.45 3626.74,3448.76 3487.05,3467.36C3515.54,3406.2 3511.22,3296.28 3487.05,3167.1C3499.06,3136.38 3501.37,3099.5 3487.05,3045.24C3588.12,3071.43 3684.72,3065.1 3779.47,3045.24C3812.93,3063.31 3855.56,3058.57 3901.66,3045.24Z" style="fill:rgb(64,64,64);"/>
                <path d="M3901.66,3045.24C3882.89,3123.48 3876.99,3211.94 3897.72,3321.57C3882.59,3373.94 3882.57,3422.84 3901.66,3467.36C3772.24,3454.45 3626.74,3448.76 3487.05,3467.36C3515.54,3406.2 3511.22,3296.28 3487.05,3167.1C3499.06,3136.38 3501.37,3099.5 3487.05,3045.24C3588.12,3071.43 3684.72,3065.1 3779.47,3045.24C3812.93,3063.31 3855.56,3058.57 3901.66,3045.24ZM3885.54,3055.05C3863.29,3060.11 3841.63,3062.65 3821.68,3061.78C3805.55,3061.09 3789.91,3058.26 3775.4,3052.48C3728.84,3062.06 3681.45,3068.16 3633.14,3069.03C3594.29,3069.74 3554.78,3067.05 3514.39,3059.96C3520.5,3082.23 3523.43,3101.43 3523.72,3118.49C3524.04,3136.86 3521.24,3152.74 3516.39,3167.29C3521.86,3192.94 3527.29,3217.81 3530.23,3241.72C3533.47,3268.18 3534.18,3293.43 3534.07,3317.15C3533.8,3374.59 3525.81,3423.06 3510.08,3458.2C3571.34,3451.68 3633.3,3449.46 3694.33,3449.91C3757.41,3450.39 3819.62,3453.74 3878.98,3458.85C3870.68,3438.28 3866.25,3416.82 3865.24,3394.53C3864.18,3371.07 3866.98,3346.7 3873.2,3321.52C3867.17,3292.58 3862.17,3265.12 3860.54,3238.9C3859.36,3219.73 3860.04,3201.24 3861.28,3183.35C3864.52,3136.94 3873.65,3094.66 3885.54,3055.05Z" style="fill:white;"/>
            </g>
        </g>
    </g>
</svg>
