<?xml version="1.0" encoding="UTF-8" standalone="no"?>
<!DOCTYPE svg PUBLIC "-//W3C//DTD SVG 1.1//EN" "http://www.w3.org/Graphics/SVG/1.1/DTD/svg11.dtd">
<svg width="100%" height="100%" viewBox="0 0 679 233" version="1.1" xmlns="http://www.w3.org/2000/svg" xmlns:xlink="http://www.w3.org/1999/xlink" xml:space="preserve" xmlns:serif="http://www.serif.com/" style="fill-rule:evenodd;clip-rule:evenodd;stroke-linejoin:round;stroke-miterlimit:2;">
    <g transform="matrix(1,0,0,1,-231.947,-1498.87)">
        <g transform="matrix(1,0,0,1,0,1161.93)">
            <g transform="matrix(1.02816,0.0207559,-0.0212021,1.05027,54.0546,-1232.15)">
                <path d="M251.599,1522.27L208.006,1696.58L549.319,1704.1L600.042,1674.96L867.609,1679.88L860.078,1477.01L540.574,1495.44L458.99,1522.27L251.599,1522.27Z" style="fill:white;"/>
            </g>
        </g>
        <g transform="matrix(1,0,0,1,0,1161.93)">
            <g transform="matrix(0.927883,0.0187316,-0.0185756,0.92016,96.9725,-1024.73)">
                <path d="M256.337,1554.41L207.059,1684.27L536.143,1693.01L598.395,1659.07L809.704,1658.35L886.288,1638.36L876.185,1493.7L532.751,1513.11L467.829,1539.34L256.337,1554.41Z" style="fill:rgb(217,35,35);"/>
            </g>
        </g>
    </g>
</svg>
