<?xml version="1.0" encoding="UTF-8" standalone="no"?>
<!DOCTYPE svg PUBLIC "-//W3C//DTD SVG 1.1//EN" "http://www.w3.org/Graphics/SVG/1.1/DTD/svg11.dtd">
<svg width="100%" height="100%" viewBox="0 0 1005 1135" version="1.1" xmlns="http://www.w3.org/2000/svg" xmlns:xlink="http://www.w3.org/1999/xlink" xml:space="preserve" xmlns:serif="http://www.serif.com/" style="fill-rule:evenodd;clip-rule:evenodd;stroke-linejoin:round;stroke-miterlimit:2;">
    <g transform="matrix(1,0,0,1,44.9809,-1161.93)">
        <g transform="matrix(1,0,0,1,0,1161.93)">
            <g transform="matrix(0.985235,-1.16635e-16,2.73458e-16,1.05055,14.1741,-1220.66)">
                <rect x="-60.042" y="1161.92" width="1020.04" height="1080" style="fill:none;"/>
                <clipPath id="_clip1">
                    <rect x="-60.042" y="1161.92" width="1020.04" height="1080"/>
                </clipPath>
                <g clip-path="url(#_clip1)">
                    <g transform="matrix(1.01264,-0.0646996,0.0689889,0.94968,-142.369,78.0207)">
                        <path d="M255.602,1603.84L353.801,1666.97L388.383,1761.81L427.9,1800.19L485.527,1780.99L678.679,1937.09L570.324,2151.34L577.434,2173.38L547.181,2389.8L-115.763,2391.25L-115.763,1633.4L-61.449,1496.83L88.15,1409.38L254.789,1485.45L255.602,1603.84Z" style="fill:rgb(64,64,64);"/>
                    </g>
                    <g transform="matrix(1.01264,-0.0646996,0.0689889,0.94968,-142.369,78.0207)">
                        <path d="M297.31,1580.89L388.302,1639.38L424.43,1738.46L438.811,1752.43L494.024,1734.02L731.305,1925.8L615.453,2154.87L620.225,2169.66L583.612,2431.59L-157.628,2433.21L-157.628,1625.38L-95.023,1467.97L85.774,1362.27L296.469,1458.46L297.31,1580.89ZM255.602,1603.84L254.789,1485.45L88.15,1409.38L-61.449,1496.83L-115.763,1633.4L-115.763,2391.25L547.181,2389.8L577.434,2173.38L570.324,2151.34L678.679,1937.09L485.527,1780.99L427.9,1800.19L388.383,1761.81L353.801,1666.97L255.602,1603.84Z" style="fill:rgb(184,184,184);"/>
                    </g>
                    <g transform="matrix(1.01264,-0.0646996,0.0689889,0.94968,-134.636,47.4589)">
                        <path d="M295.056,1827.95L344.829,1825.62L408.061,1887.04L470.079,1866.37L582.994,1957.63L516.343,2089.42L472.394,2095.7L499.632,2180.13L480.943,2313.83L-39.645,2314.97L-39.645,1647.98L-0.406,1549.32L92.468,1495.02L179.006,1534.53L179.884,1662.28L205.74,1662.28L291.073,1717.13L320.689,1798.36L295.056,1827.95ZM446.444,2274.26L459.11,2183.65L439.624,2123.24L357.782,2101.81L401.626,2065.76L490.288,2053.09L533.158,1968.33L462.033,1910.84L397.728,1932.28L329.527,1866.02L267.171,1868.95L228.198,1844.59L275.455,1790.03L258.402,1743.26L194.098,1701.92L140.51,1701.92L139.536,1560.09L94.718,1539.63L31.388,1576.65L-0,1655.57L-0,2275.23L446.444,2274.26Z" style="fill:rgb(184,184,184);"/>
                    </g>
                </g>
            </g>
        </g>
    </g>
</svg>
