<svg
    viewBox="0 0 1018 1135"
    xmlns="http://www.w3.org/2000/svg"
    xml:space="preserve"
    style="
        fill-rule: evenodd;
        clip-rule: evenodd;
        stroke-linejoin: round;
        stroke-miterlimit: 2;
    "
>
    <g transform="translate(-960 -1161.93)">
        <path style="fill: none" d="M960 1161.92h1017.96v1134.6H960z" />
        <clipPath id="a"><path d="M960 1161.92h1017.96v1134.6H960z" /></clipPath>
        <g clip-path="url(#a)">
            <path
                d="m1353.26 1715.78 31.53-32.74-10.45-21.95 71.28-41.22 6.28-6.52 2.68 1.34 105.52-61.03-59.46-89.06 185.29-61.67 74.41-68.26 190.77 41.64 103.99 221.76-69.44 61.54 39.37 90.01-.66 7.93 59.72 32.78-13.66 612.79-720.46-10.86-27.75-94.98-7.09-24.27-122.38-97.25 51.64-51.64-61.7-33.49-50.76-205.8 79.26-172.79 142.07 3.74z"
                style="fill: #b8b8b8"
                transform="translate(29.733 9.911)"
            />
            <path
                d="m1376.93 1773.51 76.39-79.34-4.78-10.04 189.41-109.54 3.47-1.92-51.76-77.53 125.88-41.9 61.56-56.48 134.29 29.31 73.9 157.59-63.76 56.51 9.34 36.65 36.07 82.45-2.54 30.48 61.84 33.95-11.62 521.48-621.67-9.37-28.1-96.22-86.48-68.71 49.85-49.85-37.62-36.78-58.52-31.76-39.95-161.98 55.24-120.41 129.56 3.41z"
                style="fill: #404040"
                transform="translate(29.733 9.911)"
            />
            <path
                d="m1410.51 1817.22-.71-16.12 63.11-65.54 55.24 27.61 3.85-3.37-27.81-58.4 154.83-89.54 43.87-24.23-46.46-69.59 81.31-27.06 51.94-47.65 91.92 20.07 51.33 109.45-59.34 52.6 16.66 65.33 33.13 75.73-3.95 47.39 63.43 34.82-10.1 453.01-547.57-8.25-7.07-24.21-15.99-54.74-59.55-47.31 48.59-48.6-9.21-20.83-28.99-12.44-36.71-35.89-47.14-25.58-31.84-129.1 37.22-81.14 136.01 3.58z"
                style="fill: #b8b8b8"
                transform="translate(29.733 9.911)"
            />
            <path
                d="m1450.92 2259.69-19.03-65.16-38.05-30.24 38.05-38.06-24.1-54.55-35.49-15.22-35.55-34.76-38.06-20.66-25.37-102.86 22.83-49.78 96.42 2.54 6.34 36.89 48.21-15.33-2.54-58.25 35.52-36.89 53.28 26.64 40.6-35.52-25.37-53.29 127.23-73.58 48.24-26.64 31.38-10.15-45.73-68.5 45.73-15.23 44.25-40.59 58.11 12.68 33.32 71.05-55.82 49.47 22.5 88.22 30.78 70.36-5.07 60.9 64.7 35.52-8.88 398.35-488.43-7.36z"
                style="fill: #404040"
                transform="translate(29.733 9.911)"
            />
        </g>
    </g>
</svg>
